<?xml version="1.0" encoding="utf-8"?>
<!-- Generator: Adobe Illustrator 17.0.0, SVG Export Plug-In . SVG Version: 6.00 Build 0)  -->
<!DOCTYPE svg PUBLIC "-//W3C//DTD SVG 1.1//EN" "http://www.w3.org/Graphics/SVG/1.1/DTD/svg11.dtd">
<svg version="1.1" xmlns="http://www.w3.org/2000/svg" xmlns:xlink="http://www.w3.org/1999/xlink" x="0px" y="0px" width="63px"
	 height="126px" viewBox="0 0 63 126" enable-background="new 0 0 63 126" xml:space="preserve">
<g id="图层_2">
	<rect x="0" fill="#FFFFFF" width="63" height="63"/>
	<rect x="0" y="63" fill="#FFFFFF" width="63" height="63"/>
</g>
<g id="图层_1">
	<g id="图层_1_1_">
		<path fill="#2AAD6E" d="M38.268,30.199h-5.466v-5.466c0-0.719-0.583-0.781-1.302-0.781s-1.301,0.062-1.301,0.781v5.466h-5.466
			c-0.719,0-0.781,0.583-0.781,1.301s0.062,1.301,0.781,1.301h5.466v5.466c0,0.719,0.582,0.781,1.301,0.781
			c0.719,0,1.302-0.062,1.302-0.781v-5.466h5.466c0.719,0,0.781-0.583,0.781-1.301C39.049,30.782,38.987,30.199,38.268,30.199z"/>
	</g>
	<g id="图层_1_2_">
		<path fill="#2AAD6E" d="M38.268,93.199h-5.466h-2.603h-5.466c-0.719,0-0.781,0.583-0.781,1.301s0.062,1.301,0.781,1.301h5.466
			h2.603h5.466c0.719,0,0.781-0.583,0.781-1.301S38.987,93.199,38.268,93.199z"/>
	</g>
</g>
</svg>
